<svg width="250" height="250" viewBox="0 0 250 250" fill="none" xmlns="http://www.w3.org/2000/svg">
<path d="M0 0H7.57576V7.57576H0V0ZM7.57576 0H15.1515V7.57576H7.57576V0ZM15.1515 0H22.7273V7.57576H15.1515V0ZM22.7273 0H30.303V7.57576H22.7273V0ZM30.303 0H37.8788V7.57576H30.303V0ZM37.8788 0H45.4545V7.57576H37.8788V0ZM45.4545 0H53.0303V7.57576H45.4545V0ZM83.3333 0H90.9091V7.57576H83.3333V0ZM98.4848 0H106.061V7.57576H98.4848V0ZM106.061 0H113.636V7.57576H106.061V0ZM121.212 0H128.788V7.57576H121.212V0ZM151.515 0H159.091V7.57576H151.515V0ZM174.242 0H181.818V7.57576H174.242V0ZM181.818 0H189.394V7.57576H181.818V0ZM196.97 0H204.545V7.57576H196.97V0ZM204.545 0H212.121V7.57576H204.545V0ZM212.121 0H219.697V7.57576H212.121V0ZM219.697 0H227.273V7.57576H219.697V0ZM227.273 0H234.848V7.57576H227.273V0ZM234.848 0H242.424V7.57576H234.848V0ZM242.424 0H250V7.57576H242.424V0ZM0 7.57576H7.57576V15.1515H0V7.57576ZM45.4545 7.57576H53.0303V15.1515H45.4545V7.57576ZM75.7576 7.57576H83.3333V15.1515H75.7576V7.57576ZM83.3333 7.57576H90.9091V15.1515H83.3333V7.57576ZM90.9091 7.57576H98.4848V15.1515H90.9091V7.57576ZM136.364 7.57576H143.939V15.1515H136.364V7.57576ZM143.939 7.57576H151.515V15.1515H143.939V7.57576ZM196.97 7.57576H204.545V15.1515H196.97V7.57576ZM242.424 7.57576H250V15.1515H242.424V7.57576ZM0 15.1515H7.57576V22.7273H0V15.1515ZM15.1515 15.1515H22.7273V22.7273H15.1515V15.1515ZM22.7273 15.1515H30.303V22.7273H22.7273V15.1515ZM30.303 15.1515H37.8788V22.7273H30.303V15.1515ZM45.4545 15.1515H53.0303V22.7273H45.4545V15.1515ZM60.6061 15.1515H68.1818V22.7273H60.6061V15.1515ZM68.1818 15.1515H75.7576V22.7273H68.1818V15.1515ZM83.3333 15.1515H90.9091V22.7273H83.3333V15.1515ZM90.9091 15.1515H98.4848V22.7273H90.9091V15.1515ZM113.636 15.1515H121.212V22.7273H113.636V15.1515ZM128.788 15.1515H136.364V22.7273H128.788V15.1515ZM136.364 15.1515H143.939V22.7273H136.364V15.1515ZM143.939 15.1515H151.515V22.7273H143.939V15.1515ZM159.091 15.1515H166.667V22.7273H159.091V15.1515ZM174.242 15.1515H181.818V22.7273H174.242V15.1515ZM196.97 15.1515H204.545V22.7273H196.97V15.1515ZM212.121 15.1515H219.697V22.7273H212.121V15.1515ZM219.697 15.1515H227.273V22.7273H219.697V15.1515ZM227.273 15.1515H234.848V22.7273H227.273V15.1515ZM242.424 15.1515H250V22.7273H242.424V15.1515ZM0 22.7273H7.57576V30.303H0V22.7273ZM15.1515 22.7273H22.7273V30.303H15.1515V22.7273ZM22.7273 22.7273H30.303V30.303H22.7273V22.7273ZM30.303 22.7273H37.8788V30.303H30.303V22.7273ZM45.4545 22.7273H53.0303V30.303H45.4545V22.7273ZM68.1818 22.7273H75.7576V30.303H68.1818V22.7273ZM75.7576 22.7273H83.3333V30.303H75.7576V22.7273ZM83.3333 22.7273H90.9091V30.303H83.3333V22.7273ZM106.061 22.7273H113.636V30.303H106.061V22.7273ZM113.636 22.7273H121.212V30.303H113.636V22.7273ZM121.212 22.7273H128.788V30.303H121.212V22.7273ZM128.788 22.7273H136.364V30.303H128.788V22.7273ZM143.939 22.7273H151.515V30.303H143.939V22.7273ZM159.091 22.7273H166.667V30.303H159.091V22.7273ZM166.667 22.7273H174.242V30.303H166.667V22.7273ZM174.242 22.7273H181.818V30.303H174.242V22.7273ZM196.97 22.7273H204.545V30.303H196.97V22.7273ZM212.121 22.7273H219.697V30.303H212.121V22.7273ZM219.697 22.7273H227.273V30.303H219.697V22.7273ZM227.273 22.7273H234.848V30.303H227.273V22.7273ZM242.424 22.7273H250V30.303H242.424V22.7273ZM0 30.303H7.57576V37.8788H0V30.303ZM15.1515 30.303H22.7273V37.8788H15.1515V30.303ZM22.7273 30.303H30.303V37.8788H22.7273V30.303ZM30.303 30.303H37.8788V37.8788H30.303V30.303ZM45.4545 30.303H53.0303V37.8788H45.4545V30.303ZM60.6061 30.303H68.1818V37.8788H60.6061V30.303ZM83.3333 30.303H90.9091V37.8788H83.3333V30.303ZM113.636 30.303H121.212V37.8788H113.636V30.303ZM121.212 30.303H128.788V37.8788H121.212V30.303ZM143.939 30.303H151.515V37.8788H143.939V30.303ZM159.091 30.303H166.667V37.8788H159.091V30.303ZM166.667 30.303H174.242V37.8788H166.667V30.303ZM196.97 30.303H204.545V37.8788H196.97V30.303ZM212.121 30.303H219.697V37.8788H212.121V30.303ZM219.697 30.303H227.273V37.8788H219.697V30.303ZM227.273 30.303H234.848V37.8788H227.273V30.303ZM242.424 30.303H250V37.8788H242.424V30.303ZM0 37.8788H7.57576V45.4545H0V37.8788ZM45.4545 37.8788H53.0303V45.4545H45.4545V37.8788ZM60.6061 37.8788H68.1818V45.4545H60.6061V37.8788ZM68.1818 37.8788H75.7576V45.4545H68.1818V37.8788ZM75.7576 37.8788H83.3333V45.4545H75.7576V37.8788ZM128.788 37.8788H136.364V45.4545H128.788V37.8788ZM136.364 37.8788H143.939V45.4545H136.364V37.8788ZM151.515 37.8788H159.091V45.4545H151.515V37.8788ZM159.091 37.8788H166.667V45.4545H159.091V37.8788ZM166.667 37.8788H174.242V45.4545H166.667V37.8788ZM174.242 37.8788H181.818V45.4545H174.242V37.8788ZM181.818 37.8788H189.394V45.4545H181.818V37.8788ZM196.97 37.8788H204.545V45.4545H196.97V37.8788ZM242.424 37.8788H250V45.4545H242.424V37.8788ZM0 45.4545H7.57576V53.0303H0V45.4545ZM7.57576 45.4545H15.1515V53.0303H7.57576V45.4545ZM15.1515 45.4545H22.7273V53.0303H15.1515V45.4545ZM22.7273 45.4545H30.303V53.0303H22.7273V45.4545ZM30.303 45.4545H37.8788V53.0303H30.303V45.4545ZM37.8788 45.4545H45.4545V53.0303H37.8788V45.4545ZM45.4545 45.4545H53.0303V53.0303H45.4545V45.4545ZM60.6061 45.4545H68.1818V53.0303H60.6061V45.4545ZM75.7576 45.4545H83.3333V53.0303H75.7576V45.4545ZM90.9091 45.4545H98.4848V53.0303H90.9091V45.4545ZM106.061 45.4545H113.636V53.0303H106.061V45.4545ZM121.212 45.4545H128.788V53.0303H121.212V45.4545ZM136.364 45.4545H143.939V53.0303H136.364V45.4545ZM151.515 45.4545H159.091V53.0303H151.515V45.4545ZM166.667 45.4545H174.242V53.0303H166.667V45.4545ZM181.818 45.4545H189.394V53.0303H181.818V45.4545ZM196.97 45.4545H204.545V53.0303H196.97V45.4545ZM204.545 45.4545H212.121V53.0303H204.545V45.4545ZM212.121 45.4545H219.697V53.0303H212.121V45.4545ZM219.697 45.4545H227.273V53.0303H219.697V45.4545ZM227.273 45.4545H234.848V53.0303H227.273V45.4545ZM234.848 45.4545H242.424V53.0303H234.848V45.4545ZM242.424 45.4545H250V53.0303H242.424V45.4545ZM68.1818 53.0303H75.7576V60.6061H68.1818V53.0303ZM75.7576 53.0303H83.3333V60.6061H75.7576V53.0303ZM128.788 53.0303H136.364V60.6061H128.788V53.0303ZM136.364 53.0303H143.939V60.6061H136.364V53.0303ZM143.939 53.0303H151.515V60.6061H143.939V53.0303ZM151.515 53.0303H159.091V60.6061H151.515V53.0303ZM159.091 53.0303H166.667V60.6061H159.091V53.0303ZM181.818 53.0303H189.394V60.6061H181.818V53.0303ZM7.57576 60.6061H15.1515V68.1818H7.57576V60.6061ZM30.303 60.6061H37.8788V68.1818H30.303V60.6061ZM45.4545 60.6061H53.0303V68.1818H45.4545V60.6061ZM60.6061 60.6061H68.1818V68.1818H60.6061V60.6061ZM68.1818 60.6061H75.7576V68.1818H68.1818V60.6061ZM90.9091 60.6061H98.4848V68.1818H90.9091V60.6061ZM98.4848 60.6061H106.061V68.1818H98.4848V60.6061ZM113.636 60.6061H121.212V68.1818H113.636V60.6061ZM121.212 60.6061H128.788V68.1818H121.212V60.6061ZM128.788 60.6061H136.364V68.1818H128.788V60.6061ZM136.364 60.6061H143.939V68.1818H136.364V60.6061ZM151.515 60.6061H159.091V68.1818H151.515V60.6061ZM159.091 60.6061H166.667V68.1818H159.091V60.6061ZM166.667 60.6061H174.242V68.1818H166.667V60.6061ZM174.242 60.6061H181.818V68.1818H174.242V60.6061ZM181.818 60.6061H189.394V68.1818H181.818V60.6061ZM189.394 60.6061H196.97V68.1818H189.394V60.6061ZM204.545 60.6061H212.121V68.1818H204.545V60.6061ZM212.121 60.6061H219.697V68.1818H212.121V60.6061ZM227.273 60.6061H234.848V68.1818H227.273V60.6061ZM0 68.1818H7.57576V75.7576H0V68.1818ZM15.1515 68.1818H22.7273V75.7576H15.1515V68.1818ZM22.7273 68.1818H30.303V75.7576H22.7273V68.1818ZM30.303 68.1818H37.8788V75.7576H30.303V68.1818ZM37.8788 68.1818H45.4545V75.7576H37.8788V68.1818ZM53.0303 68.1818H60.6061V75.7576H53.0303V68.1818ZM60.6061 68.1818H68.1818V75.7576H60.6061V68.1818ZM68.1818 68.1818H75.7576V75.7576H68.1818V68.1818ZM83.3333 68.1818H90.9091V75.7576H83.3333V68.1818ZM98.4848 68.1818H106.061V75.7576H98.4848V68.1818ZM106.061 68.1818H113.636V75.7576H106.061V68.1818ZM113.636 68.1818H121.212V75.7576H113.636V68.1818ZM128.788 68.1818H136.364V75.7576H128.788V68.1818ZM136.364 68.1818H143.939V75.7576H136.364V68.1818ZM159.091 68.1818H166.667V75.7576H159.091V68.1818ZM174.242 68.1818H181.818V75.7576H174.242V68.1818ZM189.394 68.1818H196.97V75.7576H189.394V68.1818ZM219.697 68.1818H227.273V75.7576H219.697V68.1818ZM227.273 68.1818H234.848V75.7576H227.273V68.1818ZM234.848 68.1818H242.424V75.7576H234.848V68.1818ZM7.57576 75.7576H15.1515V83.3333H7.57576V75.7576ZM15.1515 75.7576H22.7273V83.3333H15.1515V75.7576ZM30.303 75.7576H37.8788V83.3333H30.303V75.7576ZM45.4545 75.7576H53.0303V83.3333H45.4545V75.7576ZM53.0303 75.7576H60.6061V83.3333H53.0303V75.7576ZM60.6061 75.7576H68.1818V83.3333H60.6061V75.7576ZM83.3333 75.7576H90.9091V83.3333H83.3333V75.7576ZM98.4848 75.7576H106.061V83.3333H98.4848V75.7576ZM136.364 75.7576H143.939V83.3333H136.364V75.7576ZM151.515 75.7576H159.091V83.3333H151.515V75.7576ZM174.242 75.7576H181.818V83.3333H174.242V75.7576ZM181.818 75.7576H189.394V83.3333H181.818V75.7576ZM196.97 75.7576H204.545V83.3333H196.97V75.7576ZM219.697 75.7576H227.273V83.3333H219.697V75.7576ZM234.848 75.7576H242.424V83.3333H234.848V75.7576ZM0 83.3333H7.57576V90.9091H0V83.3333ZM7.57576 83.3333H15.1515V90.9091H7.57576V83.3333ZM22.7273 83.3333H30.303V90.9091H22.7273V83.3333ZM37.8788 83.3333H45.4545V90.9091H37.8788V83.3333ZM60.6061 83.3333H68.1818V90.9091H60.6061V83.3333ZM83.3333 83.3333H90.9091V90.9091H83.3333V83.3333ZM90.9091 83.3333H98.4848V90.9091H90.9091V83.3333ZM98.4848 83.3333H106.061V90.9091H98.4848V83.3333ZM106.061 83.3333H113.636V90.9091H106.061V83.3333ZM113.636 83.3333H121.212V90.9091H113.636V83.3333ZM143.939 83.3333H151.515V90.9091H143.939V83.3333ZM166.667 83.3333H174.242V90.9091H166.667V83.3333ZM174.242 83.3333H181.818V90.9091H174.242V83.3333ZM181.818 83.3333H189.394V90.9091H181.818V83.3333ZM189.394 83.3333H196.97V90.9091H189.394V83.3333ZM242.424 83.3333H250V90.9091H242.424V83.3333ZM0 90.9091H7.57576V98.4848H0V90.9091ZM7.57576 90.9091H15.1515V98.4848H7.57576V90.9091ZM30.303 90.9091H37.8788V98.4848H30.303V90.9091ZM37.8788 90.9091H45.4545V98.4848H37.8788V90.9091ZM45.4545 90.9091H53.0303V98.4848H45.4545V90.9091ZM53.0303 90.9091H60.6061V98.4848H53.0303V90.9091ZM83.3333 90.9091H90.9091V98.4848H83.3333V90.9091ZM90.9091 90.9091H98.4848V98.4848H90.9091V90.9091ZM98.4848 90.9091H106.061V98.4848H98.4848V90.9091ZM121.212 90.9091H128.788V98.4848H121.212V90.9091ZM143.939 90.9091H151.515V98.4848H143.939V90.9091ZM166.667 90.9091H174.242V98.4848H166.667V90.9091ZM174.242 90.9091H181.818V98.4848H174.242V90.9091ZM196.97 90.9091H204.545V98.4848H196.97V90.9091ZM212.121 90.9091H219.697V98.4848H212.121V90.9091ZM219.697 90.9091H227.273V98.4848H219.697V90.9091ZM242.424 90.9091H250V98.4848H242.424V90.9091ZM0 98.4848H7.57576V106.061H0V98.4848ZM7.57576 98.4848H15.1515V106.061H7.57576V98.4848ZM37.8788 98.4848H45.4545V106.061H37.8788V98.4848ZM60.6061 98.4848H68.1818V106.061H60.6061V98.4848ZM68.1818 98.4848H75.7576V106.061H68.1818V98.4848ZM75.7576 98.4848H83.3333V106.061H75.7576V98.4848ZM90.9091 98.4848H98.4848V106.061H90.9091V98.4848ZM98.4848 98.4848H106.061V106.061H98.4848V98.4848ZM106.061 98.4848H113.636V106.061H106.061V98.4848ZM121.212 98.4848H128.788V106.061H121.212V98.4848ZM136.364 98.4848H143.939V106.061H136.364V98.4848ZM143.939 98.4848H151.515V106.061H143.939V98.4848ZM151.515 98.4848H159.091V106.061H151.515V98.4848ZM181.818 98.4848H189.394V106.061H181.818V98.4848ZM204.545 98.4848H212.121V106.061H204.545V98.4848ZM227.273 98.4848H234.848V106.061H227.273V98.4848ZM0 106.061H7.57576V113.636H0V106.061ZM7.57576 106.061H15.1515V113.636H7.57576V106.061ZM37.8788 106.061H45.4545V113.636H37.8788V106.061ZM45.4545 106.061H53.0303V113.636H45.4545V106.061ZM53.0303 106.061H60.6061V113.636H53.0303V106.061ZM83.3333 106.061H90.9091V113.636H83.3333V106.061ZM90.9091 106.061H98.4848V113.636H90.9091V106.061ZM106.061 106.061H113.636V113.636H106.061V106.061ZM113.636 106.061H121.212V113.636H113.636V106.061ZM121.212 106.061H128.788V113.636H121.212V106.061ZM136.364 106.061H143.939V113.636H136.364V106.061ZM151.515 106.061H159.091V113.636H151.515V106.061ZM159.091 106.061H166.667V113.636H159.091V106.061ZM166.667 106.061H174.242V113.636H166.667V106.061ZM174.242 106.061H181.818V113.636H174.242V106.061ZM181.818 106.061H189.394V113.636H181.818V106.061ZM189.394 106.061H196.97V113.636H189.394V106.061ZM196.97 106.061H204.545V113.636H196.97V106.061ZM204.545 106.061H212.121V113.636H204.545V106.061ZM212.121 106.061H219.697V113.636H212.121V106.061ZM234.848 106.061H242.424V113.636H234.848V106.061ZM0 113.636H7.57576V121.212H0V113.636ZM22.7273 113.636H30.303V121.212H22.7273V113.636ZM30.303 113.636H37.8788V121.212H30.303V113.636ZM60.6061 113.636H68.1818V121.212H60.6061V113.636ZM75.7576 113.636H83.3333V121.212H75.7576V113.636ZM83.3333 113.636H90.9091V121.212H83.3333V113.636ZM90.9091 113.636H98.4848V121.212H90.9091V113.636ZM106.061 113.636H113.636V121.212H106.061V113.636ZM128.788 113.636H136.364V121.212H128.788V113.636ZM136.364 113.636H143.939V121.212H136.364V113.636ZM159.091 113.636H166.667V121.212H159.091V113.636ZM174.242 113.636H181.818V121.212H174.242V113.636ZM189.394 113.636H196.97V121.212H189.394V113.636ZM196.97 113.636H204.545V121.212H196.97V113.636ZM0 121.212H7.57576V128.788H0V121.212ZM30.303 121.212H37.8788V128.788H30.303V121.212ZM45.4545 121.212H53.0303V128.788H45.4545V121.212ZM53.0303 121.212H60.6061V128.788H53.0303V121.212ZM60.6061 121.212H68.1818V128.788H60.6061V121.212ZM68.1818 121.212H75.7576V128.788H68.1818V121.212ZM106.061 121.212H113.636V128.788H106.061V121.212ZM143.939 121.212H151.515V128.788H143.939V121.212ZM151.515 121.212H159.091V128.788H151.515V121.212ZM159.091 121.212H166.667V128.788H159.091V121.212ZM166.667 121.212H174.242V128.788H166.667V121.212ZM181.818 121.212H189.394V128.788H181.818V121.212ZM196.97 121.212H204.545V128.788H196.97V121.212ZM212.121 121.212H219.697V128.788H212.121V121.212ZM234.848 121.212H242.424V128.788H234.848V121.212ZM0 128.788H7.57576V136.364H0V128.788ZM15.1515 128.788H22.7273V136.364H15.1515V128.788ZM90.9091 128.788H98.4848V136.364H90.9091V128.788ZM121.212 128.788H128.788V136.364H121.212V128.788ZM128.788 128.788H136.364V136.364H128.788V128.788ZM174.242 128.788H181.818V136.364H174.242V128.788ZM189.394 128.788H196.97V136.364H189.394V128.788ZM219.697 128.788H227.273V136.364H219.697V128.788ZM227.273 128.788H234.848V136.364H227.273V128.788ZM0 136.364H7.57576V143.939H0V136.364ZM15.1515 136.364H22.7273V143.939H15.1515V136.364ZM45.4545 136.364H53.0303V143.939H45.4545V136.364ZM75.7576 136.364H83.3333V143.939H75.7576V136.364ZM83.3333 136.364H90.9091V143.939H83.3333V136.364ZM98.4848 136.364H106.061V143.939H98.4848V136.364ZM106.061 136.364H113.636V143.939H106.061V136.364ZM113.636 136.364H121.212V143.939H113.636V136.364ZM151.515 136.364H159.091V143.939H151.515V136.364ZM159.091 136.364H166.667V143.939H159.091V136.364ZM166.667 136.364H174.242V143.939H166.667V136.364ZM174.242 136.364H181.818V143.939H174.242V136.364ZM204.545 136.364H212.121V143.939H204.545V136.364ZM219.697 136.364H227.273V143.939H219.697V136.364ZM234.848 136.364H242.424V143.939H234.848V136.364ZM7.57576 143.939H15.1515V151.515H7.57576V143.939ZM15.1515 143.939H22.7273V151.515H15.1515V143.939ZM22.7273 143.939H30.303V151.515H22.7273V143.939ZM53.0303 143.939H60.6061V151.515H53.0303V143.939ZM60.6061 143.939H68.1818V151.515H60.6061V143.939ZM68.1818 143.939H75.7576V151.515H68.1818V143.939ZM83.3333 143.939H90.9091V151.515H83.3333V143.939ZM90.9091 143.939H98.4848V151.515H90.9091V143.939ZM113.636 143.939H121.212V151.515H113.636V143.939ZM128.788 143.939H136.364V151.515H128.788V143.939ZM136.364 143.939H143.939V151.515H136.364V143.939ZM159.091 143.939H166.667V151.515H159.091V143.939ZM181.818 143.939H189.394V151.515H181.818V143.939ZM189.394 143.939H196.97V151.515H189.394V143.939ZM196.97 143.939H204.545V151.515H196.97V143.939ZM204.545 143.939H212.121V151.515H204.545V143.939ZM234.848 143.939H242.424V151.515H234.848V143.939ZM0 151.515H7.57576V159.091H0V151.515ZM7.57576 151.515H15.1515V159.091H7.57576V151.515ZM22.7273 151.515H30.303V159.091H22.7273V151.515ZM30.303 151.515H37.8788V159.091H30.303V151.515ZM37.8788 151.515H45.4545V159.091H37.8788V151.515ZM45.4545 151.515H53.0303V159.091H45.4545V151.515ZM60.6061 151.515H68.1818V159.091H60.6061V151.515ZM68.1818 151.515H75.7576V159.091H68.1818V151.515ZM75.7576 151.515H83.3333V159.091H75.7576V151.515ZM98.4848 151.515H106.061V159.091H98.4848V151.515ZM106.061 151.515H113.636V159.091H106.061V151.515ZM113.636 151.515H121.212V159.091H113.636V151.515ZM121.212 151.515H128.788V159.091H121.212V151.515ZM128.788 151.515H136.364V159.091H128.788V151.515ZM136.364 151.515H143.939V159.091H136.364V151.515ZM143.939 151.515H151.515V159.091H143.939V151.515ZM151.515 151.515H159.091V159.091H151.515V151.515ZM174.242 151.515H181.818V159.091H174.242V151.515ZM181.818 151.515H189.394V159.091H181.818V151.515ZM196.97 151.515H204.545V159.091H196.97V151.515ZM212.121 151.515H219.697V159.091H212.121V151.515ZM219.697 151.515H227.273V159.091H219.697V151.515ZM242.424 151.515H250V159.091H242.424V151.515ZM0 159.091H7.57576V166.667H0V159.091ZM7.57576 159.091H15.1515V166.667H7.57576V159.091ZM30.303 159.091H37.8788V166.667H30.303V159.091ZM37.8788 159.091H45.4545V166.667H37.8788V159.091ZM60.6061 159.091H68.1818V166.667H60.6061V159.091ZM83.3333 159.091H90.9091V166.667H83.3333V159.091ZM113.636 159.091H121.212V166.667H113.636V159.091ZM121.212 159.091H128.788V166.667H121.212V159.091ZM128.788 159.091H136.364V166.667H128.788V159.091ZM143.939 159.091H151.515V166.667H143.939V159.091ZM166.667 159.091H174.242V166.667H166.667V159.091ZM204.545 159.091H212.121V166.667H204.545V159.091ZM219.697 159.091H227.273V166.667H219.697V159.091ZM234.848 159.091H242.424V166.667H234.848V159.091ZM15.1515 166.667H22.7273V174.242H15.1515V166.667ZM22.7273 166.667H30.303V174.242H22.7273V166.667ZM37.8788 166.667H45.4545V174.242H37.8788V166.667ZM45.4545 166.667H53.0303V174.242H45.4545V166.667ZM60.6061 166.667H68.1818V174.242H60.6061V166.667ZM68.1818 166.667H75.7576V174.242H68.1818V166.667ZM90.9091 166.667H98.4848V174.242H90.9091V166.667ZM113.636 166.667H121.212V174.242H113.636V166.667ZM121.212 166.667H128.788V174.242H121.212V166.667ZM136.364 166.667H143.939V174.242H136.364V166.667ZM143.939 166.667H151.515V174.242H143.939V166.667ZM166.667 166.667H174.242V174.242H166.667V166.667ZM189.394 166.667H196.97V174.242H189.394V166.667ZM196.97 166.667H204.545V174.242H196.97V166.667ZM212.121 166.667H219.697V174.242H212.121V166.667ZM219.697 166.667H227.273V174.242H219.697V166.667ZM227.273 166.667H234.848V174.242H227.273V166.667ZM234.848 166.667H242.424V174.242H234.848V166.667ZM15.1515 174.242H22.7273V181.818H15.1515V174.242ZM22.7273 174.242H30.303V181.818H22.7273V174.242ZM53.0303 174.242H60.6061V181.818H53.0303V174.242ZM75.7576 174.242H83.3333V181.818H75.7576V174.242ZM98.4848 174.242H106.061V181.818H98.4848V174.242ZM106.061 174.242H113.636V181.818H106.061V174.242ZM121.212 174.242H128.788V181.818H121.212V174.242ZM143.939 174.242H151.515V181.818H143.939V174.242ZM151.515 174.242H159.091V181.818H151.515V174.242ZM159.091 174.242H166.667V181.818H159.091V174.242ZM181.818 174.242H189.394V181.818H181.818V174.242ZM212.121 174.242H219.697V181.818H212.121V174.242ZM234.848 174.242H242.424V181.818H234.848V174.242ZM0 181.818H7.57576V189.394H0V181.818ZM7.57576 181.818H15.1515V189.394H7.57576V181.818ZM15.1515 181.818H22.7273V189.394H15.1515V181.818ZM22.7273 181.818H30.303V189.394H22.7273V181.818ZM30.303 181.818H37.8788V189.394H30.303V181.818ZM37.8788 181.818H45.4545V189.394H37.8788V181.818ZM45.4545 181.818H53.0303V189.394H45.4545V181.818ZM53.0303 181.818H60.6061V189.394H53.0303V181.818ZM128.788 181.818H136.364V189.394H128.788V181.818ZM151.515 181.818H159.091V189.394H151.515V181.818ZM159.091 181.818H166.667V189.394H159.091V181.818ZM166.667 181.818H174.242V189.394H166.667V181.818ZM174.242 181.818H181.818V189.394H174.242V181.818ZM181.818 181.818H189.394V189.394H181.818V181.818ZM189.394 181.818H196.97V189.394H189.394V181.818ZM196.97 181.818H204.545V189.394H196.97V181.818ZM204.545 181.818H212.121V189.394H204.545V181.818ZM212.121 181.818H219.697V189.394H212.121V181.818ZM234.848 181.818H242.424V189.394H234.848V181.818ZM242.424 181.818H250V189.394H242.424V181.818ZM60.6061 189.394H68.1818V196.97H60.6061V189.394ZM68.1818 189.394H75.7576V196.97H68.1818V189.394ZM75.7576 189.394H83.3333V196.97H75.7576V189.394ZM83.3333 189.394H90.9091V196.97H83.3333V189.394ZM113.636 189.394H121.212V196.97H113.636V189.394ZM159.091 189.394H166.667V196.97H159.091V189.394ZM181.818 189.394H189.394V196.97H181.818V189.394ZM212.121 189.394H219.697V196.97H212.121V189.394ZM227.273 189.394H234.848V196.97H227.273V189.394ZM234.848 189.394H242.424V196.97H234.848V189.394ZM0 196.97H7.57576V204.545H0V196.97ZM7.57576 196.97H15.1515V204.545H7.57576V196.97ZM15.1515 196.97H22.7273V204.545H15.1515V196.97ZM22.7273 196.97H30.303V204.545H22.7273V196.97ZM30.303 196.97H37.8788V204.545H30.303V196.97ZM37.8788 196.97H45.4545V204.545H37.8788V196.97ZM45.4545 196.97H53.0303V204.545H45.4545V196.97ZM68.1818 196.97H75.7576V204.545H68.1818V196.97ZM98.4848 196.97H106.061V204.545H98.4848V196.97ZM106.061 196.97H113.636V204.545H106.061V196.97ZM113.636 196.97H121.212V204.545H113.636V196.97ZM121.212 196.97H128.788V204.545H121.212V196.97ZM136.364 196.97H143.939V204.545H136.364V196.97ZM181.818 196.97H189.394V204.545H181.818V196.97ZM196.97 196.97H204.545V204.545H196.97V196.97ZM212.121 196.97H219.697V204.545H212.121V196.97ZM219.697 196.97H227.273V204.545H219.697V196.97ZM234.848 196.97H242.424V204.545H234.848V196.97ZM0 204.545H7.57576V212.121H0V204.545ZM45.4545 204.545H53.0303V212.121H45.4545V204.545ZM68.1818 204.545H75.7576V212.121H68.1818V204.545ZM121.212 204.545H128.788V212.121H121.212V204.545ZM128.788 204.545H136.364V212.121H128.788V204.545ZM136.364 204.545H143.939V212.121H136.364V204.545ZM166.667 204.545H174.242V212.121H166.667V204.545ZM174.242 204.545H181.818V212.121H174.242V204.545ZM181.818 204.545H189.394V212.121H181.818V204.545ZM212.121 204.545H219.697V212.121H212.121V204.545ZM234.848 204.545H242.424V212.121H234.848V204.545ZM0 212.121H7.57576V219.697H0V212.121ZM15.1515 212.121H22.7273V219.697H15.1515V212.121ZM22.7273 212.121H30.303V219.697H22.7273V212.121ZM30.303 212.121H37.8788V219.697H30.303V212.121ZM45.4545 212.121H53.0303V219.697H45.4545V212.121ZM60.6061 212.121H68.1818V219.697H60.6061V212.121ZM106.061 212.121H113.636V219.697H106.061V212.121ZM113.636 212.121H121.212V219.697H113.636V212.121ZM136.364 212.121H143.939V219.697H136.364V212.121ZM166.667 212.121H174.242V219.697H166.667V212.121ZM181.818 212.121H189.394V219.697H181.818V212.121ZM189.394 212.121H196.97V219.697H189.394V212.121ZM196.97 212.121H204.545V219.697H196.97V212.121ZM204.545 212.121H212.121V219.697H204.545V212.121ZM212.121 212.121H219.697V219.697H212.121V212.121ZM219.697 212.121H227.273V219.697H219.697V212.121ZM0 219.697H7.57576V227.273H0V219.697ZM15.1515 219.697H22.7273V227.273H15.1515V219.697ZM22.7273 219.697H30.303V227.273H22.7273V219.697ZM30.303 219.697H37.8788V227.273H30.303V219.697ZM45.4545 219.697H53.0303V227.273H45.4545V219.697ZM68.1818 219.697H75.7576V227.273H68.1818V219.697ZM75.7576 219.697H83.3333V227.273H75.7576V219.697ZM83.3333 219.697H90.9091V227.273H83.3333V219.697ZM90.9091 219.697H98.4848V227.273H90.9091V219.697ZM106.061 219.697H113.636V227.273H106.061V219.697ZM121.212 219.697H128.788V227.273H121.212V219.697ZM128.788 219.697H136.364V227.273H128.788V219.697ZM136.364 219.697H143.939V227.273H136.364V219.697ZM143.939 219.697H151.515V227.273H143.939V219.697ZM151.515 219.697H159.091V227.273H151.515V219.697ZM174.242 219.697H181.818V227.273H174.242V219.697ZM181.818 219.697H189.394V227.273H181.818V219.697ZM196.97 219.697H204.545V227.273H196.97V219.697ZM204.545 219.697H212.121V227.273H204.545V219.697ZM212.121 219.697H219.697V227.273H212.121V219.697ZM219.697 219.697H227.273V227.273H219.697V219.697ZM227.273 219.697H234.848V227.273H227.273V219.697ZM234.848 219.697H242.424V227.273H234.848V219.697ZM0 227.273H7.57576V234.848H0V227.273ZM15.1515 227.273H22.7273V234.848H15.1515V227.273ZM22.7273 227.273H30.303V234.848H22.7273V227.273ZM30.303 227.273H37.8788V234.848H30.303V227.273ZM45.4545 227.273H53.0303V234.848H45.4545V227.273ZM68.1818 227.273H75.7576V234.848H68.1818V227.273ZM75.7576 227.273H83.3333V234.848H75.7576V227.273ZM90.9091 227.273H98.4848V234.848H90.9091V227.273ZM106.061 227.273H113.636V234.848H106.061V227.273ZM113.636 227.273H121.212V234.848H113.636V227.273ZM128.788 227.273H136.364V234.848H128.788V227.273ZM151.515 227.273H159.091V234.848H151.515V227.273ZM159.091 227.273H166.667V234.848H159.091V227.273ZM189.394 227.273H196.97V234.848H189.394V227.273ZM196.97 227.273H204.545V234.848H196.97V227.273ZM204.545 227.273H212.121V234.848H204.545V227.273ZM212.121 227.273H219.697V234.848H212.121V227.273ZM227.273 227.273H234.848V234.848H227.273V227.273ZM0 234.848H7.57576V242.424H0V234.848ZM45.4545 234.848H53.0303V242.424H45.4545V234.848ZM60.6061 234.848H68.1818V242.424H60.6061V234.848ZM68.1818 234.848H75.7576V242.424H68.1818V234.848ZM128.788 234.848H136.364V242.424H128.788V234.848ZM159.091 234.848H166.667V242.424H159.091V234.848ZM174.242 234.848H181.818V242.424H174.242V234.848ZM189.394 234.848H196.97V242.424H189.394V234.848ZM0 242.424H7.57576V250H0V242.424ZM7.57576 242.424H15.1515V250H7.57576V242.424ZM15.1515 242.424H22.7273V250H15.1515V242.424ZM22.7273 242.424H30.303V250H22.7273V242.424ZM30.303 242.424H37.8788V250H30.303V242.424ZM37.8788 242.424H45.4545V250H37.8788V242.424ZM45.4545 242.424H53.0303V250H45.4545V242.424ZM68.1818 242.424H75.7576V250H68.1818V242.424ZM75.7576 242.424H83.3333V250H75.7576V242.424ZM83.3333 242.424H90.9091V250H83.3333V242.424ZM90.9091 242.424H98.4848V250H90.9091V242.424ZM106.061 242.424H113.636V250H106.061V242.424ZM128.788 242.424H136.364V250H128.788V242.424ZM136.364 242.424H143.939V250H136.364V242.424ZM143.939 242.424H151.515V250H143.939V242.424ZM151.515 242.424H159.091V250H151.515V242.424ZM159.091 242.424H166.667V250H159.091V242.424ZM166.667 242.424H174.242V250H166.667V242.424ZM181.818 242.424H189.394V250H181.818V242.424ZM189.394 242.424H196.97V250H189.394V242.424ZM196.97 242.424H204.545V250H196.97V242.424ZM242.424 242.424H250V250H242.424V242.424Z" fill="white"/>
</svg>
