<svg width="250" height="250" viewBox="0 0 250 250" fill="none" xmlns="http://www.w3.org/2000/svg">
<path d="M0 0H8.62069V8.62069H0V0ZM8.62069 0H17.2414V8.62069H8.62069V0ZM17.2414 0H25.8621V8.62069H17.2414V0ZM25.8621 0H34.4828V8.62069H25.8621V0ZM34.4828 0H43.1034V8.62069H34.4828V0ZM43.1034 0H51.7241V8.62069H43.1034V0ZM51.7241 0H60.3448V8.62069H51.7241V0ZM112.069 0H120.69V8.62069H112.069V0ZM129.31 0H137.931V8.62069H129.31V0ZM155.172 0H163.793V8.62069H155.172V0ZM189.655 0H198.276V8.62069H189.655V0ZM198.276 0H206.897V8.62069H198.276V0ZM206.897 0H215.517V8.62069H206.897V0ZM215.517 0H224.138V8.62069H215.517V0ZM224.138 0H232.759V8.62069H224.138V0ZM232.759 0H241.379V8.62069H232.759V0ZM241.379 0H250V8.62069H241.379V0ZM0 8.62069H8.62069V17.2414H0V8.62069ZM51.7241 8.62069H60.3448V17.2414H51.7241V8.62069ZM77.5862 8.62069H86.2069V17.2414H77.5862V8.62069ZM120.69 8.62069H129.31V17.2414H120.69V8.62069ZM146.552 8.62069H155.172V17.2414H146.552V8.62069ZM155.172 8.62069H163.793V17.2414H155.172V8.62069ZM189.655 8.62069H198.276V17.2414H189.655V8.62069ZM241.379 8.62069H250V17.2414H241.379V8.62069ZM0 17.2414H8.62069V25.8621H0V17.2414ZM17.2414 17.2414H25.8621V25.8621H17.2414V17.2414ZM25.8621 17.2414H34.4828V25.8621H25.8621V17.2414ZM34.4828 17.2414H43.1034V25.8621H34.4828V17.2414ZM51.7241 17.2414H60.3448V25.8621H51.7241V17.2414ZM103.448 17.2414H112.069V25.8621H103.448V17.2414ZM112.069 17.2414H120.69V25.8621H112.069V17.2414ZM120.69 17.2414H129.31V25.8621H120.69V17.2414ZM129.31 17.2414H137.931V25.8621H129.31V17.2414ZM137.931 17.2414H146.552V25.8621H137.931V17.2414ZM146.552 17.2414H155.172V25.8621H146.552V17.2414ZM155.172 17.2414H163.793V25.8621H155.172V17.2414ZM163.793 17.2414H172.414V25.8621H163.793V17.2414ZM189.655 17.2414H198.276V25.8621H189.655V17.2414ZM206.897 17.2414H215.517V25.8621H206.897V17.2414ZM215.517 17.2414H224.138V25.8621H215.517V17.2414ZM224.138 17.2414H232.759V25.8621H224.138V17.2414ZM241.379 17.2414H250V25.8621H241.379V17.2414ZM0 25.8621H8.62069V34.4828H0V25.8621ZM17.2414 25.8621H25.8621V34.4828H17.2414V25.8621ZM25.8621 25.8621H34.4828V34.4828H25.8621V25.8621ZM34.4828 25.8621H43.1034V34.4828H34.4828V25.8621ZM51.7241 25.8621H60.3448V34.4828H51.7241V25.8621ZM68.9655 25.8621H77.5862V34.4828H68.9655V25.8621ZM86.2069 25.8621H94.8276V34.4828H86.2069V25.8621ZM94.8276 25.8621H103.448V34.4828H94.8276V25.8621ZM103.448 25.8621H112.069V34.4828H103.448V25.8621ZM112.069 25.8621H120.69V34.4828H112.069V25.8621ZM137.931 25.8621H146.552V34.4828H137.931V25.8621ZM146.552 25.8621H155.172V34.4828H146.552V25.8621ZM155.172 25.8621H163.793V34.4828H155.172V25.8621ZM189.655 25.8621H198.276V34.4828H189.655V25.8621ZM206.897 25.8621H215.517V34.4828H206.897V25.8621ZM215.517 25.8621H224.138V34.4828H215.517V25.8621ZM224.138 25.8621H232.759V34.4828H224.138V25.8621ZM241.379 25.8621H250V34.4828H241.379V25.8621ZM0 34.4828H8.62069V43.1034H0V34.4828ZM17.2414 34.4828H25.8621V43.1034H17.2414V34.4828ZM25.8621 34.4828H34.4828V43.1034H25.8621V34.4828ZM34.4828 34.4828H43.1034V43.1034H34.4828V34.4828ZM51.7241 34.4828H60.3448V43.1034H51.7241V34.4828ZM94.8276 34.4828H103.448V43.1034H94.8276V34.4828ZM103.448 34.4828H112.069V43.1034H103.448V34.4828ZM112.069 34.4828H120.69V43.1034H112.069V34.4828ZM120.69 34.4828H129.31V43.1034H120.69V34.4828ZM137.931 34.4828H146.552V43.1034H137.931V34.4828ZM155.172 34.4828H163.793V43.1034H155.172V34.4828ZM172.414 34.4828H181.034V43.1034H172.414V34.4828ZM189.655 34.4828H198.276V43.1034H189.655V34.4828ZM206.897 34.4828H215.517V43.1034H206.897V34.4828ZM215.517 34.4828H224.138V43.1034H215.517V34.4828ZM224.138 34.4828H232.759V43.1034H224.138V34.4828ZM241.379 34.4828H250V43.1034H241.379V34.4828ZM0 43.1034H8.62069V51.7241H0V43.1034ZM51.7241 43.1034H60.3448V51.7241H51.7241V43.1034ZM68.9655 43.1034H77.5862V51.7241H68.9655V43.1034ZM94.8276 43.1034H103.448V51.7241H94.8276V43.1034ZM112.069 43.1034H120.69V51.7241H112.069V43.1034ZM137.931 43.1034H146.552V51.7241H137.931V43.1034ZM146.552 43.1034H155.172V51.7241H146.552V43.1034ZM155.172 43.1034H163.793V51.7241H155.172V43.1034ZM172.414 43.1034H181.034V51.7241H172.414V43.1034ZM189.655 43.1034H198.276V51.7241H189.655V43.1034ZM241.379 43.1034H250V51.7241H241.379V43.1034ZM0 51.7241H8.62069V60.3448H0V51.7241ZM8.62069 51.7241H17.2414V60.3448H8.62069V51.7241ZM17.2414 51.7241H25.8621V60.3448H17.2414V51.7241ZM25.8621 51.7241H34.4828V60.3448H25.8621V51.7241ZM34.4828 51.7241H43.1034V60.3448H34.4828V51.7241ZM43.1034 51.7241H51.7241V60.3448H43.1034V51.7241ZM51.7241 51.7241H60.3448V60.3448H51.7241V51.7241ZM68.9655 51.7241H77.5862V60.3448H68.9655V51.7241ZM86.2069 51.7241H94.8276V60.3448H86.2069V51.7241ZM103.448 51.7241H112.069V60.3448H103.448V51.7241ZM120.69 51.7241H129.31V60.3448H120.69V51.7241ZM137.931 51.7241H146.552V60.3448H137.931V51.7241ZM155.172 51.7241H163.793V60.3448H155.172V51.7241ZM172.414 51.7241H181.034V60.3448H172.414V51.7241ZM189.655 51.7241H198.276V60.3448H189.655V51.7241ZM198.276 51.7241H206.897V60.3448H198.276V51.7241ZM206.897 51.7241H215.517V60.3448H206.897V51.7241ZM215.517 51.7241H224.138V60.3448H215.517V51.7241ZM224.138 51.7241H232.759V60.3448H224.138V51.7241ZM232.759 51.7241H241.379V60.3448H232.759V51.7241ZM241.379 51.7241H250V60.3448H241.379V51.7241ZM68.9655 60.3448H77.5862V68.9655H68.9655V60.3448ZM77.5862 60.3448H86.2069V68.9655H77.5862V60.3448ZM94.8276 60.3448H103.448V68.9655H94.8276V60.3448ZM103.448 60.3448H112.069V68.9655H103.448V60.3448ZM155.172 60.3448H163.793V68.9655H155.172V60.3448ZM172.414 60.3448H181.034V68.9655H172.414V60.3448ZM8.62069 68.9655H17.2414V77.5862H8.62069V68.9655ZM17.2414 68.9655H25.8621V77.5862H17.2414V68.9655ZM51.7241 68.9655H60.3448V77.5862H51.7241V68.9655ZM77.5862 68.9655H86.2069V77.5862H77.5862V68.9655ZM103.448 68.9655H112.069V77.5862H103.448V68.9655ZM120.69 68.9655H129.31V77.5862H120.69V68.9655ZM129.31 68.9655H137.931V77.5862H129.31V68.9655ZM137.931 68.9655H146.552V77.5862H137.931V68.9655ZM163.793 68.9655H172.414V77.5862H163.793V68.9655ZM189.655 68.9655H198.276V77.5862H189.655V68.9655ZM198.276 68.9655H206.897V77.5862H198.276V68.9655ZM215.517 68.9655H224.138V77.5862H215.517V68.9655ZM17.2414 77.5862H25.8621V86.2069H17.2414V77.5862ZM25.8621 77.5862H34.4828V86.2069H25.8621V77.5862ZM43.1034 77.5862H51.7241V86.2069H43.1034V77.5862ZM60.3448 77.5862H68.9655V86.2069H60.3448V77.5862ZM68.9655 77.5862H77.5862V86.2069H68.9655V77.5862ZM86.2069 77.5862H94.8276V86.2069H86.2069V77.5862ZM103.448 77.5862H112.069V86.2069H103.448V77.5862ZM112.069 77.5862H120.69V86.2069H112.069V77.5862ZM120.69 77.5862H129.31V86.2069H120.69V77.5862ZM129.31 77.5862H137.931V86.2069H129.31V77.5862ZM146.552 77.5862H155.172V86.2069H146.552V77.5862ZM155.172 77.5862H163.793V86.2069H155.172V77.5862ZM163.793 77.5862H172.414V86.2069H163.793V77.5862ZM172.414 77.5862H181.034V86.2069H172.414V77.5862ZM189.655 77.5862H198.276V86.2069H189.655V77.5862ZM224.138 77.5862H232.759V86.2069H224.138V77.5862ZM232.759 77.5862H241.379V86.2069H232.759V77.5862ZM241.379 77.5862H250V86.2069H241.379V77.5862ZM0 86.2069H8.62069V94.8276H0V86.2069ZM8.62069 86.2069H17.2414V94.8276H8.62069V86.2069ZM17.2414 86.2069H25.8621V94.8276H17.2414V86.2069ZM34.4828 86.2069H43.1034V94.8276H34.4828V86.2069ZM43.1034 86.2069H51.7241V94.8276H43.1034V86.2069ZM51.7241 86.2069H60.3448V94.8276H51.7241V86.2069ZM60.3448 86.2069H68.9655V94.8276H60.3448V86.2069ZM68.9655 86.2069H77.5862V94.8276H68.9655V86.2069ZM112.069 86.2069H120.69V94.8276H112.069V86.2069ZM129.31 86.2069H137.931V94.8276H129.31V86.2069ZM137.931 86.2069H146.552V94.8276H137.931V86.2069ZM146.552 86.2069H155.172V94.8276H146.552V86.2069ZM163.793 86.2069H172.414V94.8276H163.793V86.2069ZM172.414 86.2069H181.034V94.8276H172.414V86.2069ZM181.034 86.2069H189.655V94.8276H181.034V86.2069ZM215.517 86.2069H224.138V94.8276H215.517V86.2069ZM224.138 86.2069H232.759V94.8276H224.138V86.2069ZM241.379 86.2069H250V94.8276H241.379V86.2069ZM17.2414 94.8276H25.8621V103.448H17.2414V94.8276ZM77.5862 94.8276H86.2069V103.448H77.5862V94.8276ZM94.8276 94.8276H103.448V103.448H94.8276V94.8276ZM103.448 94.8276H112.069V103.448H103.448V94.8276ZM129.31 94.8276H137.931V103.448H129.31V94.8276ZM155.172 94.8276H163.793V103.448H155.172V94.8276ZM163.793 94.8276H172.414V103.448H163.793V94.8276ZM172.414 94.8276H181.034V103.448H172.414V94.8276ZM189.655 94.8276H198.276V103.448H189.655V94.8276ZM215.517 94.8276H224.138V103.448H215.517V94.8276ZM25.8621 103.448H34.4828V112.069H25.8621V103.448ZM51.7241 103.448H60.3448V112.069H51.7241V103.448ZM60.3448 103.448H68.9655V112.069H60.3448V103.448ZM68.9655 103.448H77.5862V112.069H68.9655V103.448ZM77.5862 103.448H86.2069V112.069H77.5862V103.448ZM86.2069 103.448H94.8276V112.069H86.2069V103.448ZM94.8276 103.448H103.448V112.069H94.8276V103.448ZM120.69 103.448H129.31V112.069H120.69V103.448ZM129.31 103.448H137.931V112.069H129.31V103.448ZM181.034 103.448H189.655V112.069H181.034V103.448ZM189.655 103.448H198.276V112.069H189.655V103.448ZM215.517 103.448H224.138V112.069H215.517V103.448ZM232.759 103.448H241.379V112.069H232.759V103.448ZM0 112.069H8.62069V120.69H0V112.069ZM8.62069 112.069H17.2414V120.69H8.62069V112.069ZM17.2414 112.069H25.8621V120.69H17.2414V112.069ZM34.4828 112.069H43.1034V120.69H34.4828V112.069ZM43.1034 112.069H51.7241V120.69H43.1034V112.069ZM60.3448 112.069H68.9655V120.69H60.3448V112.069ZM94.8276 112.069H103.448V120.69H94.8276V112.069ZM103.448 112.069H112.069V120.69H103.448V112.069ZM112.069 112.069H120.69V120.69H112.069V112.069ZM120.69 112.069H129.31V120.69H120.69V112.069ZM129.31 112.069H137.931V120.69H129.31V112.069ZM163.793 112.069H172.414V120.69H163.793V112.069ZM172.414 112.069H181.034V120.69H172.414V112.069ZM189.655 112.069H198.276V120.69H189.655V112.069ZM215.517 112.069H224.138V120.69H215.517V112.069ZM241.379 112.069H250V120.69H241.379V112.069ZM0 120.69H8.62069V129.31H0V120.69ZM17.2414 120.69H25.8621V129.31H17.2414V120.69ZM34.4828 120.69H43.1034V129.31H34.4828V120.69ZM51.7241 120.69H60.3448V129.31H51.7241V120.69ZM77.5862 120.69H86.2069V129.31H77.5862V120.69ZM94.8276 120.69H103.448V129.31H94.8276V120.69ZM112.069 120.69H120.69V129.31H112.069V120.69ZM120.69 120.69H129.31V129.31H120.69V120.69ZM155.172 120.69H163.793V129.31H155.172V120.69ZM163.793 120.69H172.414V129.31H163.793V120.69ZM172.414 120.69H181.034V129.31H172.414V120.69ZM215.517 120.69H224.138V129.31H215.517V120.69ZM224.138 120.69H232.759V129.31H224.138V120.69ZM241.379 120.69H250V129.31H241.379V120.69ZM34.4828 129.31H43.1034V137.931H34.4828V129.31ZM43.1034 129.31H51.7241V137.931H43.1034V129.31ZM68.9655 129.31H77.5862V137.931H68.9655V129.31ZM77.5862 129.31H86.2069V137.931H77.5862V129.31ZM94.8276 129.31H103.448V137.931H94.8276V129.31ZM103.448 129.31H112.069V137.931H103.448V129.31ZM129.31 129.31H137.931V137.931H129.31V129.31ZM137.931 129.31H146.552V137.931H137.931V129.31ZM172.414 129.31H181.034V137.931H172.414V129.31ZM181.034 129.31H189.655V137.931H181.034V129.31ZM215.517 129.31H224.138V137.931H215.517V129.31ZM232.759 129.31H241.379V137.931H232.759V129.31ZM0 137.931H8.62069V146.552H0V137.931ZM8.62069 137.931H17.2414V146.552H8.62069V137.931ZM17.2414 137.931H25.8621V146.552H17.2414V137.931ZM34.4828 137.931H43.1034V146.552H34.4828V137.931ZM51.7241 137.931H60.3448V146.552H51.7241V137.931ZM60.3448 137.931H68.9655V146.552H60.3448V137.931ZM77.5862 137.931H86.2069V146.552H77.5862V137.931ZM86.2069 137.931H94.8276V146.552H86.2069V137.931ZM94.8276 137.931H103.448V146.552H94.8276V137.931ZM120.69 137.931H129.31V146.552H120.69V137.931ZM137.931 137.931H146.552V146.552H137.931V137.931ZM146.552 137.931H155.172V146.552H146.552V137.931ZM155.172 137.931H163.793V146.552H155.172V137.931ZM172.414 137.931H181.034V146.552H172.414V137.931ZM189.655 137.931H198.276V146.552H189.655V137.931ZM241.379 137.931H250V146.552H241.379V137.931ZM8.62069 146.552H17.2414V155.172H8.62069V146.552ZM25.8621 146.552H34.4828V155.172H25.8621V146.552ZM68.9655 146.552H77.5862V155.172H68.9655V146.552ZM86.2069 146.552H94.8276V155.172H86.2069V146.552ZM112.069 146.552H120.69V155.172H112.069V146.552ZM137.931 146.552H146.552V155.172H137.931V146.552ZM163.793 146.552H172.414V155.172H163.793V146.552ZM172.414 146.552H181.034V155.172H172.414V146.552ZM189.655 146.552H198.276V155.172H189.655V146.552ZM241.379 146.552H250V155.172H241.379V146.552ZM0 155.172H8.62069V163.793H0V155.172ZM8.62069 155.172H17.2414V163.793H8.62069V155.172ZM25.8621 155.172H34.4828V163.793H25.8621V155.172ZM43.1034 155.172H51.7241V163.793H43.1034V155.172ZM51.7241 155.172H60.3448V163.793H51.7241V155.172ZM60.3448 155.172H68.9655V163.793H60.3448V155.172ZM86.2069 155.172H94.8276V163.793H86.2069V155.172ZM103.448 155.172H112.069V163.793H103.448V155.172ZM112.069 155.172H120.69V163.793H112.069V155.172ZM120.69 155.172H129.31V163.793H120.69V155.172ZM137.931 155.172H146.552V163.793H137.931V155.172ZM146.552 155.172H155.172V163.793H146.552V155.172ZM155.172 155.172H163.793V163.793H155.172V155.172ZM163.793 155.172H172.414V163.793H163.793V155.172ZM224.138 155.172H232.759V163.793H224.138V155.172ZM241.379 155.172H250V163.793H241.379V155.172ZM34.4828 163.793H43.1034V172.414H34.4828V163.793ZM43.1034 163.793H51.7241V172.414H43.1034V163.793ZM60.3448 163.793H68.9655V172.414H60.3448V163.793ZM68.9655 163.793H77.5862V172.414H68.9655V163.793ZM77.5862 163.793H86.2069V172.414H77.5862V163.793ZM86.2069 163.793H94.8276V172.414H86.2069V163.793ZM103.448 163.793H112.069V172.414H103.448V163.793ZM120.69 163.793H129.31V172.414H120.69V163.793ZM129.31 163.793H137.931V172.414H129.31V163.793ZM137.931 163.793H146.552V172.414H137.931V163.793ZM155.172 163.793H163.793V172.414H155.172V163.793ZM172.414 163.793H181.034V172.414H172.414V163.793ZM181.034 163.793H189.655V172.414H181.034V163.793ZM189.655 163.793H198.276V172.414H189.655V163.793ZM206.897 163.793H215.517V172.414H206.897V163.793ZM215.517 163.793H224.138V172.414H215.517V163.793ZM232.759 163.793H241.379V172.414H232.759V163.793ZM0 172.414H8.62069V181.034H0V172.414ZM8.62069 172.414H17.2414V181.034H8.62069V172.414ZM17.2414 172.414H25.8621V181.034H17.2414V172.414ZM34.4828 172.414H43.1034V181.034H34.4828V172.414ZM51.7241 172.414H60.3448V181.034H51.7241V172.414ZM60.3448 172.414H68.9655V181.034H60.3448V172.414ZM86.2069 172.414H94.8276V181.034H86.2069V172.414ZM94.8276 172.414H103.448V181.034H94.8276V172.414ZM103.448 172.414H112.069V181.034H103.448V172.414ZM112.069 172.414H120.69V181.034H112.069V172.414ZM120.69 172.414H129.31V181.034H120.69V172.414ZM137.931 172.414H146.552V181.034H137.931V172.414ZM155.172 172.414H163.793V181.034H155.172V172.414ZM163.793 172.414H172.414V181.034H163.793V172.414ZM172.414 172.414H181.034V181.034H172.414V172.414ZM181.034 172.414H189.655V181.034H181.034V172.414ZM189.655 172.414H198.276V181.034H189.655V172.414ZM198.276 172.414H206.897V181.034H198.276V172.414ZM206.897 172.414H215.517V181.034H206.897V172.414ZM215.517 172.414H224.138V181.034H215.517V172.414ZM68.9655 181.034H77.5862V189.655H68.9655V181.034ZM77.5862 181.034H86.2069V189.655H77.5862V181.034ZM94.8276 181.034H103.448V189.655H94.8276V181.034ZM112.069 181.034H120.69V189.655H112.069V181.034ZM120.69 181.034H129.31V189.655H120.69V181.034ZM129.31 181.034H137.931V189.655H129.31V181.034ZM137.931 181.034H146.552V189.655H137.931V181.034ZM146.552 181.034H155.172V189.655H146.552V181.034ZM172.414 181.034H181.034V189.655H172.414V181.034ZM206.897 181.034H215.517V189.655H206.897V181.034ZM215.517 181.034H224.138V189.655H215.517V181.034ZM241.379 181.034H250V189.655H241.379V181.034ZM0 189.655H8.62069V198.276H0V189.655ZM8.62069 189.655H17.2414V198.276H8.62069V189.655ZM17.2414 189.655H25.8621V198.276H17.2414V189.655ZM25.8621 189.655H34.4828V198.276H25.8621V189.655ZM34.4828 189.655H43.1034V198.276H34.4828V189.655ZM43.1034 189.655H51.7241V198.276H43.1034V189.655ZM51.7241 189.655H60.3448V198.276H51.7241V189.655ZM77.5862 189.655H86.2069V198.276H77.5862V189.655ZM94.8276 189.655H103.448V198.276H94.8276V189.655ZM103.448 189.655H112.069V198.276H103.448V189.655ZM129.31 189.655H137.931V198.276H129.31V189.655ZM172.414 189.655H181.034V198.276H172.414V189.655ZM189.655 189.655H198.276V198.276H189.655V189.655ZM206.897 189.655H215.517V198.276H206.897V189.655ZM215.517 189.655H224.138V198.276H215.517V189.655ZM224.138 189.655H232.759V198.276H224.138V189.655ZM241.379 189.655H250V198.276H241.379V189.655ZM0 198.276H8.62069V206.897H0V198.276ZM51.7241 198.276H60.3448V206.897H51.7241V198.276ZM103.448 198.276H112.069V206.897H103.448V198.276ZM112.069 198.276H120.69V206.897H112.069V198.276ZM146.552 198.276H155.172V206.897H146.552V198.276ZM163.793 198.276H172.414V206.897H163.793V198.276ZM172.414 198.276H181.034V206.897H172.414V198.276ZM206.897 198.276H215.517V206.897H206.897V198.276ZM215.517 198.276H224.138V206.897H215.517V198.276ZM232.759 198.276H241.379V206.897H232.759V198.276ZM241.379 198.276H250V206.897H241.379V198.276ZM0 206.897H8.62069V215.517H0V206.897ZM17.2414 206.897H25.8621V215.517H17.2414V206.897ZM25.8621 206.897H34.4828V215.517H25.8621V206.897ZM34.4828 206.897H43.1034V215.517H34.4828V206.897ZM51.7241 206.897H60.3448V215.517H51.7241V206.897ZM77.5862 206.897H86.2069V215.517H77.5862V206.897ZM86.2069 206.897H94.8276V215.517H86.2069V206.897ZM112.069 206.897H120.69V215.517H112.069V206.897ZM129.31 206.897H137.931V215.517H129.31V206.897ZM146.552 206.897H155.172V215.517H146.552V206.897ZM163.793 206.897H172.414V215.517H163.793V206.897ZM172.414 206.897H181.034V215.517H172.414V206.897ZM181.034 206.897H189.655V215.517H181.034V206.897ZM189.655 206.897H198.276V215.517H189.655V206.897ZM198.276 206.897H206.897V215.517H198.276V206.897ZM206.897 206.897H215.517V215.517H206.897V206.897ZM232.759 206.897H241.379V215.517H232.759V206.897ZM241.379 206.897H250V215.517H241.379V206.897ZM0 215.517H8.62069V224.138H0V215.517ZM17.2414 215.517H25.8621V224.138H17.2414V215.517ZM25.8621 215.517H34.4828V224.138H25.8621V215.517ZM34.4828 215.517H43.1034V224.138H34.4828V215.517ZM51.7241 215.517H60.3448V224.138H51.7241V215.517ZM94.8276 215.517H103.448V224.138H94.8276V215.517ZM103.448 215.517H112.069V224.138H103.448V215.517ZM112.069 215.517H120.69V224.138H112.069V215.517ZM120.69 215.517H129.31V224.138H120.69V215.517ZM146.552 215.517H155.172V224.138H146.552V215.517ZM163.793 215.517H172.414V224.138H163.793V215.517ZM172.414 215.517H181.034V224.138H172.414V215.517ZM198.276 215.517H206.897V224.138H198.276V215.517ZM206.897 215.517H215.517V224.138H206.897V215.517ZM232.759 215.517H241.379V224.138H232.759V215.517ZM0 224.138H8.62069V232.759H0V224.138ZM17.2414 224.138H25.8621V232.759H17.2414V224.138ZM25.8621 224.138H34.4828V232.759H25.8621V224.138ZM34.4828 224.138H43.1034V232.759H34.4828V224.138ZM51.7241 224.138H60.3448V232.759H51.7241V224.138ZM68.9655 224.138H77.5862V232.759H68.9655V224.138ZM77.5862 224.138H86.2069V232.759H77.5862V224.138ZM120.69 224.138H129.31V232.759H120.69V224.138ZM129.31 224.138H137.931V232.759H129.31V224.138ZM181.034 224.138H189.655V232.759H181.034V224.138ZM206.897 224.138H215.517V232.759H206.897V224.138ZM232.759 224.138H241.379V232.759H232.759V224.138ZM241.379 224.138H250V232.759H241.379V224.138ZM0 232.759H8.62069V241.379H0V232.759ZM51.7241 232.759H60.3448V241.379H51.7241V232.759ZM68.9655 232.759H77.5862V241.379H68.9655V232.759ZM77.5862 232.759H86.2069V241.379H77.5862V232.759ZM86.2069 232.759H94.8276V241.379H86.2069V232.759ZM103.448 232.759H112.069V241.379H103.448V232.759ZM120.69 232.759H129.31V241.379H120.69V232.759ZM155.172 232.759H163.793V241.379H155.172V232.759ZM172.414 232.759H181.034V241.379H172.414V232.759ZM181.034 232.759H189.655V241.379H181.034V232.759ZM189.655 232.759H198.276V241.379H189.655V232.759ZM215.517 232.759H224.138V241.379H215.517V232.759ZM0 241.379H8.62069V250H0V241.379ZM8.62069 241.379H17.2414V250H8.62069V241.379ZM17.2414 241.379H25.8621V250H17.2414V241.379ZM25.8621 241.379H34.4828V250H25.8621V241.379ZM34.4828 241.379H43.1034V250H34.4828V241.379ZM43.1034 241.379H51.7241V250H43.1034V241.379ZM51.7241 241.379H60.3448V250H51.7241V241.379ZM94.8276 241.379H103.448V250H94.8276V241.379ZM103.448 241.379H112.069V250H103.448V241.379ZM112.069 241.379H120.69V250H112.069V241.379ZM129.31 241.379H137.931V250H129.31V241.379ZM137.931 241.379H146.552V250H137.931V241.379ZM172.414 241.379H181.034V250H172.414V241.379ZM189.655 241.379H198.276V250H189.655V241.379ZM198.276 241.379H206.897V250H198.276V241.379ZM206.897 241.379H215.517V250H206.897V241.379ZM215.517 241.379H224.138V250H215.517V241.379ZM241.379 241.379H250V250H241.379V241.379Z" fill="white"/>
</svg>
