<svg width="311" height="300" viewBox="0 0 311 300" fill="none" xmlns="http://www.w3.org/2000/svg">
<g clip-path="url(#clip0_2193_3917)">
<path d="M203.035 5.94531H108.937L32.8107 61.2595L3.73828 150.747L32.8107 240.243L108.937 295.548H203.035L279.161 240.243L308.242 150.747L279.161 61.2595L203.035 5.94531Z" fill="white"/>
<path d="M199.155 17.9023H112.828L42.9865 68.6501L16.3086 150.749L42.9865 232.857L112.828 283.596H199.155L268.997 232.857L295.675 150.749L268.997 68.6501L199.155 17.9023Z" stroke="#1836B2" stroke-miterlimit="10"/>
<path d="M101.852 53.3828L210.264 53.908L211.047 191.125C210.611 196.885 209.214 205.902 204.416 215.738C201.407 221.898 195.808 232.989 183.114 240.707C167.198 250.374 150.971 248.095 146.627 247.339C127.925 244.081 117.252 231.966 113.985 228.138C110.789 224.39 99.5821 211.27 101.069 194.446C101.425 190.387 102.342 179.99 109.445 177.159C114.083 175.316 120.83 176.892 124.106 181.877C126.616 185.678 127.782 192.505 123.412 196.021C119.869 198.87 113.976 198.523 109.97 194.624C109.961 196.894 110.166 206.596 117.474 213.308C125.094 220.296 135.215 219.254 140.369 218.729C143.609 218.4 150.196 217.643 156.588 213.059C168.311 204.665 169.593 190.422 169.771 188.01C170.714 174.604 170.216 163.442 169.495 155.341C168.355 142.541 167.661 134.369 163.558 124.088C160.985 117.643 156.908 107.753 147.143 98.7718C137.227 89.6477 126.67 86.274 120.786 84.4581C113.255 82.1348 106.686 81.3871 102.101 81.1378L101.852 53.3828Z" fill="url(#paint0_radial_2193_3917)"/>
<path d="M138.731 141.712C142.851 141.712 146.19 138.372 146.19 134.252C146.19 130.133 142.851 126.793 138.731 126.793C134.611 126.793 131.271 130.133 131.271 134.252C131.271 138.372 134.611 141.712 138.731 141.712Z" fill="#1836B2"/>
</g>
<defs>
<radialGradient id="paint0_radial_2193_3917" cx="0" cy="0" r="1" gradientUnits="userSpaceOnUse" gradientTransform="translate(157.807 166.205) scale(182.308)">
<stop stop-color="#1836B2"/>
<stop offset="0.0040322" stop-color="#1936B2"/>
<stop offset="0.1581" stop-color="#4245BA"/>
<stop offset="0.3161" stop-color="#6451C1"/>
<stop offset="0.4765" stop-color="#7E5AC6"/>
<stop offset="0.6403" stop-color="#9161C9"/>
<stop offset="0.8096" stop-color="#9C65CB"/>
<stop offset="0.9931" stop-color="#A066CC"/>
</radialGradient>
<clipPath id="clip0_2193_3917">
<rect width="310.913" height="300" fill="white"/>
</clipPath>
</defs>
</svg>
